<svg width="55" height="55" viewBox="0 0 55 55" fill="none" xmlns="http://www.w3.org/2000/svg"><path fill-rule="evenodd" clip-rule="evenodd" d="M24.3688 17.4301C25.7936 15.5103 26.3045 13.4869 24.6931 11.7008C21.077 6.64142 18.6451 3.51268 17.1196 2.00596C14.2196 -0.858516 9.449 -0.471051 6.93735 2.00351C5.58832 3.33262 5.13162 3.78905 3.74646 5.19583C-3.96908 12.9147 0.736256 29.2322 13.2448 41.7517C25.7504 54.2684 42.068 58.9758 49.7997 51.2406C51.0779 50.0085 52.1601 48.9258 53.0136 48.0238C55.475 45.4225 55.8487 40.8627 52.9974 37.9005C51.5357 36.3818 48.5518 34.0675 43.279 30.2962C41.6641 28.8523 39.7493 29.1652 37.9938 30.3168C37.1493 30.8708 36.5348 31.4311 35.3744 32.5925L33.2673 34.7007C32.9897 34.9783 29.2211 33.0912 25.5629 29.4297C21.9027 25.7663 20.0166 21.9979 20.2929 21.7217C20.8625 21.1521 21.5654 20.449 22.4015 19.6121C22.7697 19.2436 22.9457 19.0652 23.1714 18.828C23.6417 18.3338 24.031 17.8853 24.3688 17.4301ZM37.1542 38.5888L39.2618 36.4803C39.9004 35.8411 40.3143 35.4481 40.651 35.1771C45.2701 38.4938 47.9452 40.5794 49.0378 41.7146C49.6939 42.3962 49.592 43.6398 49.0217 44.2426C48.2324 45.0767 47.207 46.1025 45.9487 47.3161C40.9491 52.3173 27.7772 48.5174 17.1325 37.8634C6.48459 27.206 2.68612 14.0334 7.64798 9.06933C9.02755 7.66832 9.46464 7.2315 10.7944 5.92136C11.293 5.43013 12.6511 5.31983 13.2576 5.91892C14.4321 7.07895 16.6106 9.86813 19.8154 14.3319C19.6495 14.5378 19.4423 14.7706 19.1901 15.0356C19.005 15.2301 18.8508 15.3863 18.5137 15.7237C17.6783 16.5599 16.9761 17.2625 16.4072 17.8312C12.8235 21.4142 15.8755 27.5123 21.6751 33.3171C27.4708 39.1178 33.5718 42.1729 37.1542 38.5888Z" fill="#F2F2F2"/></svg>
