<?xml version="1.0" encoding="utf-8"?>
<!-- Generator: Adobe Illustrator 24.2.1, SVG Export Plug-In . SVG Version: 6.00 Build 0)  -->
<svg version="1.1" id="Слой" xmlns="http://www.w3.org/2000/svg" xmlns:xlink="http://www.w3.org/1999/xlink" x="0px" y="0px"
	 viewBox="0 0 64 64" style="enable-background:new 0 0 64 64;" xml:space="preserve">
<style type="text/css">
	.st0{fill:none;stroke:#39B54A;stroke-width:4;stroke-miterlimit:10;}
	.st1{fill:#FFFFFF;stroke:#39B54A;stroke-width:4;stroke-miterlimit:10;}
	.st2{fill:none;stroke:#39B54A;stroke-width:2;stroke-miterlimit:10;}
	.st3{fill:none;stroke:#39B54A;stroke-width:1.5;stroke-miterlimit:10;}
	.st4{fill:#39B54A;}
</style>
<circle class="st0" cx="32" cy="32" r="30"/>
<path class="st1" d="M62,32c0,16.6-13.4,30-30,30C19.4,62,8.6,54.2,4.2,43.2c-0.2-0.5-0.4-0.9-0.5-1.4C2.6,38.7,2,35.4,2,32
	c0-1.8,0.2-3.5,0.5-5.2c0.1-0.5,0.2-1,0.3-1.5c1-4.5,3.1-8.6,5.9-12.1c0.3-0.4,0.6-0.8,1-1.2c2.7-3,6-5.5,9.7-7.2
	c0.5-0.2,0.9-0.4,1.4-0.6c3.4-1.4,7.1-2.2,11-2.2c0.1,0,0.2,0,0.3,0c0.4,0,0.8,0,1.2,0C37,2.2,40.7,3,44,4.5
	c0.5,0.2,0.9,0.4,1.4,0.6c3.6,1.8,6.7,4.2,9.3,7.2c0.3,0.4,0.7,0.8,1,1.2c2.7,3.4,4.6,7.4,5.6,11.8c0.1,0.5,0.2,1,0.3,1.5
	C61.8,28.5,62,30.2,62,32z"/>
<circle class="st2" cx="32.4" cy="26" r="6.6"/>
<path class="st3" d="M12.5,54.8c0.9-0.1,1.8-0.2,2.7-0.2c0.6,0,1.2,0,1.7,0h0c5.2,0,10.2,1.2,14.6,3.3c2.2,1,4.2,2.3,6.1,3.7"/>
<path class="st3" d="M6.9,48.4c4-1.6,8.4-2.5,12.9-2.5h0.2c0.6,0,1.1,0,1.7,0.1c3.5,0.2,6.8,0.9,9.9,2c0.5,0.2,1,0.4,1.5,0.6
	c0.9,0.4,1.8,0.8,2.7,1.2c2.6,1.3,5,2.9,7.1,4.8c1.3,1.1,2.5,2.3,3.5,3.6"/>
<path class="st3" d="M35.9,49.8c1.7-2.3,3.7-4.4,5.9-6.2c0.4-0.3,0.8-0.6,1.2-1c2.6-2,5.4-3.6,8.5-4.8c0.6-0.2,1.2-0.5,1.9-0.7
	c2.7-0.9,5.5-1.5,8.5-1.7h0"/>
<path class="st3" d="M43,54.7c1-1.1,2.1-2.2,3.3-3.2c0.4-0.3,0.8-0.7,1.2-1c3.5-2.7,7.5-4.8,11.8-6"/>
<g>
	<path class="st4" d="M25.9,25.3H2.8c-0.1,0.5-0.2,1-0.3,1.5h23.4c0-0.2,0-0.5,0-0.8C25.8,25.8,25.8,25.5,25.9,25.3L25.9,25.3z"/>
</g>
<g>
	<path class="st4" d="M61.2,25.3H39c0,0.2,0,0.5,0,0.8c0,0.3,0,0.5,0,0.8h22.5C61.5,26.3,61.4,25.8,61.2,25.3L61.2,25.3z"/>
</g>
<g>
	<path class="st4" d="M9.6,12c-0.3,0.4-0.7,0.8-1,1.2l17.7,10.2c0.2-0.5,0.4-0.9,0.8-1.3L9.6,12L9.6,12z"/>
</g>
<g>
	<path class="st4" d="M38.5,28.7c-0.2,0.5-0.4,0.9-0.8,1.3l13.7,7.9c0.6-0.2,1.2-0.5,1.8-0.7L38.5,28.7L38.5,28.7z"/>
</g>
<g>
	<path class="st4" d="M20.7,4.2c-0.5,0.2-0.9,0.4-1.4,0.6l9.2,15.9c0.4-0.3,0.8-0.5,1.3-0.8L20.7,4.2L20.7,4.2z"/>
</g>
<g>
	<path class="st4" d="M36.4,31.3c-0.4,0.3-0.8,0.6-1.3,0.8l6.7,11.5c0.4-0.3,0.8-0.6,1.2-1L36.4,31.3L36.4,31.3z"/>
</g>
<g>
	<path class="st4" d="M32,2c-0.1,0-0.2,0-0.3,0v17.5c0.2,0,0.5,0,0.8,0c0.3,0,0.5,0,0.8,0V2C32.8,2,32.4,2,32,2L32,2z"/>
</g>
<g>
	<path class="st4" d="M33.2,32.6c-0.3,0-0.5,0-0.8,0c-0.3,0-0.5,0-0.8,0V48c0.5,0.2,1,0.4,1.5,0.6V32.6L33.2,32.6z"/>
</g>
<g>
	<path class="st4" d="M28.5,31.3L20.1,46c0.6,0,1.1,0,1.7,0.1l8-13.9C29.3,31.9,28.9,31.7,28.5,31.3L28.5,31.3z"/>
</g>
<g>
	<path class="st4" d="M44,4.5L35.1,20c0.5,0.2,0.9,0.4,1.3,0.8l9-15.6C44.9,4.9,44.5,4.7,44,4.5L44,4.5z"/>
</g>
<g>
	<path class="st4" d="M26.4,28.7L3.6,41.8c0.2,0.5,0.3,1,0.5,1.4l23-13.3C26.8,29.6,26.6,29.1,26.4,28.7L26.4,28.7z"/>
</g>
<g>
	<path class="st4" d="M54.7,12.4l-16.9,9.8c0.3,0.4,0.6,0.8,0.8,1.3l17.1-9.9C55.3,13.1,55,12.7,54.7,12.4L54.7,12.4z"/>
</g>
</svg>
